<!DOCTYPE svg PUBLIC "-//W3C//DTD SVG 1.1//EN" "http://www.w3.org/Graphics/SVG/1.1/DTD/svg11.dtd">
<!-- Uploaded to: SVG Repo, www.svgrepo.com, Transformed by: SVG Repo Mixer Tools -->
<svg width="256px" height="256px" viewBox="0 0 1024 1024" class="icon" version="1.1" xmlns="http://www.w3.org/2000/svg" fill="#000000">
<g id="SVGRepo_bgCarrier" stroke-width="0"/>
<g id="SVGRepo_tracerCarrier" stroke-linecap="round" stroke-linejoin="round"/>
<g id="SVGRepo_iconCarrier">
<path d="M640 213.333333L384 128 128 213.333333v682.666667l256-85.333333 256 85.333333 256-85.333333V128z" fill="#a99de7"/>
<path d="M384 128v682.666667l256 85.333333V213.333333z" fill="#6372b0"/>
<path d="M640 320c-82.496 0-149.333333 70.250667-149.333333 156.821333S640 768 640 768s149.333333-204.629333 149.333333-291.178667S722.496 320 640 320z" fill="#F44336"/>
<path d="M640 469.333333m-64 0a64 64 0 1 0 128 0 64 64 0 1 0-128 0Z" fill="#FFEBEE"/>
</g>
</svg>